<?xml version="1.0" standalone="no"?>
<!DOCTYPE svg PUBLIC "-//W3C//DTD SVG 20010904//EN"
 "http://www.w3.org/TR/2001/REC-SVG-20010904/DTD/svg10.dtd">
<svg version="1.0" xmlns="http://www.w3.org/2000/svg"
 width="202.000000pt" height="202.000000pt" viewBox="0 0 202.000000 202.000000"
 preserveAspectRatio="xMidYMid meet">
<metadata>
Created by potrace 1.11, written by Peter Selinger 2001-2013
</metadata>
<g transform="translate(0.000000,202.000000) scale(0.100000,-0.100000)"
fill="#000000" stroke="none">
<path d="M0 1010 l0 -1010 1010 0 1010 0 0 1010 0 1010 -1010 0 -1010 0 0
-1010z m777 475 c110 -49 177 -140 204 -274 18 -92 7 -292 -19 -361 -48 -123
-117 -196 -226 -236 -39 -15 -77 -19 -166 -19 -105 1 -121 3 -177 29 -153 70
-223 224 -210 465 8 149 42 242 116 319 78 80 175 113 321 108 78 -2 106 -8
157 -31z m813 3 c91 -41 129 -103 130 -206 0 -75 -23 -128 -74 -168 l-34 -28
46 -21 c56 -26 74 -45 101 -105 23 -50 27 -124 10 -184 -14 -52 -79 -119 -142
-147 -47 -21 -70 -24 -235 -27 -134 -3 -187 -1 -197 8 -13 11 -15 77 -15 444
0 332 3 435 13 445 19 19 350 10 397 -11z"/>
<path d="M520 1409 c-133 -26 -210 -159 -210 -360 0 -181 56 -297 165 -339 46
-18 173 -16 220 4 93 40 149 128 163 262 16 145 -7 275 -61 346 -56 74 -168
109 -277 87z"/>
<path d="M1300 1265 l0 -147 111 4 111 3 33 37 c59 64 55 175 -8 222 -24 18
-46 22 -138 24 l-109 4 0 -147z"/>
<path d="M1300 860 l0 -160 113 0 c183 1 242 43 234 169 -3 58 -6 66 -39 97
-47 42 -91 54 -210 54 l-98 0 0 -160z"/>
</g>
</svg>
